General
Complete name : H:\TrannySmuts.com- Complete 1080p SiteRip- TD\Videos\v97001-499.mp4
Format : MPEG-4
Format profile : Base Media / Version 2
Codec ID : mp42
File size : 1.55 GiB
Duration : 35mn 53s
Overall bit rate mode : Variable
Overall bit rate : 6 193 Kbps
Encoded date : UTC 2011-02-25 15:30:56
Tagged date : UTC 2011-02-25 15:30:56

Video
ID : 1
Format : AVC
Format/Info : Advanced Video Codec
Format profile : High@L4.0
Format settings, CABAC : Yes
Format settings, ReFrames : 3 frames
Codec ID : avc1
Codec ID/Info : Advanced Video Coding
Duration : 35mn 53s
Bit rate mode : Variable
Bit rate : 6 000 Kbps
Width : 1 920 pixels
Height : 1 080 pixels
Display aspect ratio : 16:9
Frame rate mode : Constant
Frame rate : 25.000 fps
Standard : PAL
Color space : YUV
Chroma subsampling : 4:2:0
Bit depth : 8 bits
Scan type : Progressive
Bits/(Pixel*Frame) : 0.116
Stream size : 1.50 GiB (97%)
Language : English
Encoded date : UTC 2011-02-25 15:30:56
Tagged date : UTC 2011-02-25 15:30:56
Color primaries : BT.709-5, BT.1361, IEC 61966-2-4, SMPTE RP177
Transfer characteristics : BT.709-5, BT.1361
Matrix coefficients : BT.709-5, BT.1361, IEC 61966-2-4 709, SMPTE RP177

Audio
ID : 2
Format : AAC
Format/Info : Advanced Audio Codec
Format profile : LC
Codec ID : 40
Duration : 35mn 53s
Bit rate mode : Variable
Bit rate : 192 Kbps
Maximum bit rate : 264 Kbps
Channel(s) : 2 channels
Channel positions : Front: L R
Sampling rate : 48.0 KHz
Compression mode : Lossy
Stream size : 48.5 MiB (3%)
Language : English
Encoded date : UTC 2011-02-25 15:30:56
Tagged date : UTC 2011-02-25 15:30:56